<?xml version="1.0" encoding="UTF-8" standalone="no"?>
<!-- Created with Inkscape (http://www.inkscape.org/) -->

<svg
   xmlns:dc="http://purl.org/dc/elements/1.1/"
   xmlns:cc="http://creativecommons.org/ns#"
   xmlns:rdf="http://www.w3.org/1999/02/22-rdf-syntax-ns#"
   xmlns:svg="http://www.w3.org/2000/svg"
   xmlns="http://www.w3.org/2000/svg"
   xmlns:sodipodi="http://sodipodi.sourceforge.net/DTD/sodipodi-0.dtd"
   xmlns:inkscape="http://www.inkscape.org/namespaces/inkscape"
   width="800"
   height="400"
   viewBox="0 0 800 400"
   id="svg2"
   version="1.1"
   inkscape:version="0.91 r13725"
   sodipodi:docname="logo-original.svg">
  <defs
     id="defs4" />
  <sodipodi:namedview
     id="base"
     pagecolor="#ffffff"
     bordercolor="#666666"
     borderopacity="1.0"
     inkscape:pageopacity="0.0"
     inkscape:pageshadow="2"
     inkscape:zoom="0.98994949"
     inkscape:cx="514.87658"
     inkscape:cy="224.31585"
     inkscape:document-units="px"
     inkscape:current-layer="layer1"
     showgrid="false"
     units="px"
     inkscape:window-width="1879"
     inkscape:window-height="1056"
     inkscape:window-x="41"
     inkscape:window-y="24"
     inkscape:window-maximized="1" />
  <metadata
     id="metadata7">
    <rdf:RDF>
      <cc:Work
         rdf:about="">
        <dc:format>image/svg+xml</dc:format>
        <dc:type
           rdf:resource="http://purl.org/dc/dcmitype/StillImage" />
        <dc:title></dc:title>
      </cc:Work>
    </rdf:RDF>
  </metadata>
  <g
     inkscape:label="Layer 1"
     inkscape:groupmode="layer"
     id="layer1"
     transform="translate(0,-652.3622)">
    <text
       xml:space="preserve"
       style="font-style:normal;font-variant:normal;font-weight:normal;font-stretch:normal;font-size:187.85494995px;line-height:125%;font-family:'Titan One';-inkscape-font-specification:'Titan One';letter-spacing:0px;word-spacing:0px;fill:#f7b239;fill-opacity:1;stroke:#000000;stroke-width:4;stroke-linecap:butt;stroke-linejoin:miter;stroke-miterlimit:4;stroke-dasharray:none;stroke-dashoffset:0;stroke-opacity:1"
       x="215.57983"
       y="862.20984"
       id="text3336"
       sodipodi:linespacing="125%"><tspan
         sodipodi:role="line"
         id="tspan3338"
         x="215.57983"
         y="862.20984"
         style="stroke-width:4">Jesús</tspan></text>
    <text
       xml:space="preserve"
       style="font-style:normal;font-variant:normal;font-weight:normal;font-stretch:normal;font-size:187.85494995px;line-height:125%;font-family:'Titan One';-inkscape-font-specification:'Titan One';letter-spacing:0px;word-spacing:0px;fill:#f7b239;fill-opacity:1;stroke:#000000;stroke-width:4;stroke-linecap:butt;stroke-linejoin:round;stroke-miterlimit:4;stroke-dasharray:none;stroke-dashoffset:8.81670856;stroke-opacity:1"
       x="30.144585"
       y="1022.8539"
       id="text3340"
       sodipodi:linespacing="125%"><tspan
         sodipodi:role="line"
         id="tspan3342"
         x="30.144585"
         y="1022.8539"
         style="stroke-width:4">Farráis</tspan></text>
    <g
       id="g3407"
       transform="matrix(0.34882989,-0.1474537,0.1474537,0.34882989,-10.679769,723.50826)">
      <circle
         id="circle3345"
         r="246.855"
         cy="256.004"
         cx="256.005"
         style="fill:#f7b239" />
      <path
         id="path3347"
         d="M 126.308,385.694 C 37.506,296.892 30.509,157.268 105.309,60.453 97.023,66.854 89.051,73.852 81.451,81.452 c -96.401,96.401 -96.401,252.698 0,349.099 96.401,96.401 252.698,96.401 349.099,0 7.599,-7.599 14.597,-15.573 20.999,-23.858 -96.814,74.799 -236.44,67.802 -325.241,-20.999 z"
         style="fill:#e09b2d"
         inkscape:connector-curvature="0" />
      <g
         id="g3349">
        <path
           id="path3351"
           d="m 473.573,265.15 c -5.053,0 -9.15,-4.097 -9.15,-9.15 0,-49.977 -18.116,-98.28 -51.012,-136.006 -32.582,-37.367 -77.333,-61.873 -126.01,-69.005 -4.999,-0.733 -8.459,-5.38 -7.726,-10.379 0.733,-4.999 5.379,-8.457 10.379,-7.726 52.993,7.765 101.7,34.43 137.149,75.085 35.803,41.061 55.519,93.632 55.519,148.032 0,5.053 -4.096,9.149 -9.149,9.149 z"
           style="fill:#ffffff"
           inkscape:connector-curvature="0" />
        <path
           id="path3353"
           d="m 131.567,264.613 248.868,0 c 0,13.968 -2.306,27.4 -6.551,39.941 l -235.766,0 c -4.245,-12.541 -6.551,-25.972 -6.551,-39.941 z"
           style="fill:#ffffff"
           inkscape:connector-curvature="0" />
      </g>
      <path
         id="path3355"
         d="m 138.118,304.554 235.765,0 c -8.369,24.716 -24.289,45.931 -45.016,60.924 -8.71,-14.676 -24.716,-24.509 -43.027,-24.509 -11.187,0 -21.508,3.672 -29.84,9.882 -8.332,-6.21 -18.665,-9.882 -29.852,-9.882 -18.299,0 -34.317,9.833 -43.015,24.509 -20.726,-14.993 -36.646,-36.208 -45.015,-60.924 z"
         style="fill:#a81004"
         inkscape:connector-curvature="0" />
      <path
         id="path3357"
         d="m 285.841,340.969 c 18.311,0 34.317,9.833 43.027,24.509 -20.483,14.834 -45.662,23.569 -72.867,23.569 -27.205,0 -52.384,-8.735 -72.867,-23.569 8.698,-14.676 24.716,-24.509 43.015,-24.509 11.187,0 21.52,3.672 29.852,9.882 8.332,-6.21 18.653,-9.882 29.84,-9.882 z"
         style="fill:#f95428"
         inkscape:connector-curvature="0" />
      <circle
         id="circle3359"
         r="9.1499996"
         cy="39.647999"
         cx="256.005"
         style="fill:#ffffff" />
      <g
         id="g3361">
        <path
           id="path3363"
           d="M 256.001,0 C 114.842,0 0.00100002,114.841 0.00100002,256.001 0.00100002,397.161 114.842,512.002 256.002,512.002 397.16,512.002 512.001,397.161 512.001,256.001 512.001,114.841 397.159,0 256.001,0 Z m 0,493.701 c -131.069,0 -237.702,-106.631 -237.702,-237.7 0,-131.069 106.633,-237.702 237.702,-237.702 131.068,0 237.7,106.632 237.7,237.702 0,131.07 -106.632,237.7 -237.7,237.7 z"
           style="fill:#333333"
           inkscape:connector-curvature="0" />
        <path
           id="path3365"
           d="m 380.435,255.464 -248.868,0 c -5.053,0 -9.15,4.097 -9.15,9.15 0,14.662 2.367,29.087 7.034,42.876 8.934,26.382 25.643,48.999 48.314,65.4 22.86,16.557 49.914,25.309 78.235,25.309 28.32,0 55.373,-8.752 78.23,-25.305 22.676,-16.405 39.386,-39.02 48.319,-65.402 l 0,0 c 4.667,-13.789 7.034,-28.214 7.034,-42.875 0.002,-5.057 -4.095,-9.153 -9.148,-9.153 z m -9.508,18.299 c -0.576,7.338 -1.854,14.575 -3.809,21.642 l -222.235,0 c -1.954,-7.067 -3.233,-14.303 -3.809,-21.642 l 229.853,0 z m -174.704,89.439 c 7.649,-8.21 18.499,-13.083 29.926,-13.083 8.87,0 17.302,2.79 24.385,8.067 3.244,2.417 7.691,2.417 10.934,0 7.082,-5.279 15.509,-8.067 24.372,-8.067 11.421,0 22.272,4.871 29.932,13.085 -17.972,10.947 -38.452,16.692 -59.772,16.692 -21.32,0.002 -41.802,-5.745 -59.777,-16.694 z M 330.677,352.44 c -11.137,-12.9 -27.533,-20.621 -44.838,-20.621 -10.623,0 -20.819,2.77 -29.84,8.066 -9.021,-5.295 -19.221,-8.066 -29.852,-8.066 -17.311,0 -33.707,7.722 -44.829,20.617 -12.623,-10.71 -22.68,-23.855 -29.665,-38.733 l 208.694,0 c -6.985,14.88 -17.043,28.025 -29.67,38.737 z"
           style="fill:#333333"
           inkscape:connector-curvature="0" />
        <path
           id="path3367"
           d="m 206.973,209.881 c 0.827,-3.622 -0.617,-7.386 -3.657,-9.523 l -54.287,-38.174 c -4.133,-2.906 -9.84,-1.913 -12.747,2.221 -2.906,4.133 -1.912,9.84 2.222,12.747 l 35.988,25.306 -75.523,12.47 c -4.986,0.823 -8.36,5.532 -7.537,10.518 0.739,4.481 4.619,7.66 9.017,7.66 0.495,0 0.997,-0.04 1.502,-0.123 l 97.595,-16.113 c 3.664,-0.605 6.6,-3.367 7.427,-6.989 z"
           style="fill:#333333"
           inkscape:connector-curvature="0" />
        <path
           id="path3369"
           d="M 413.034,214.929 337.51,202.46 373.498,177.154 c 4.133,-2.907 5.129,-8.614 2.222,-12.747 -2.907,-4.134 -8.615,-5.129 -12.747,-2.222 l -54.287,38.174 c -3.039,2.137 -4.484,5.9 -3.657,9.523 0.827,3.623 3.764,6.384 7.429,6.989 l 97.595,16.113 c 0.505,0.083 1.006,0.123 1.502,0.123 4.397,0 8.276,-3.179 9.017,-7.66 0.823,-4.986 -2.552,-9.695 -7.538,-10.518 z"
           style="fill:#333333"
           inkscape:connector-curvature="0" />
      </g>
      <g
         id="g3371" />
      <g
         id="g3373" />
      <g
         id="g3375" />
      <g
         id="g3377" />
      <g
         id="g3379" />
      <g
         id="g3381" />
      <g
         id="g3383" />
      <g
         id="g3385" />
      <g
         id="g3387" />
      <g
         id="g3389" />
      <g
         id="g3391" />
      <g
         id="g3393" />
      <g
         id="g3395" />
      <g
         id="g3397" />
      <g
         id="g3399" />
    </g>
  </g>
</svg>
