<?xml version="1.0" encoding="UTF-8" standalone="no"?>
<!-- Created with Inkscape (http://www.inkscape.org/) -->

<svg
   xmlns:dc="http://purl.org/dc/elements/1.1/"
   xmlns:cc="http://creativecommons.org/ns#"
   xmlns:rdf="http://www.w3.org/1999/02/22-rdf-syntax-ns#"
   xmlns:svg="http://www.w3.org/2000/svg"
   xmlns="http://www.w3.org/2000/svg"
   xmlns:sodipodi="http://sodipodi.sourceforge.net/DTD/sodipodi-0.dtd"
   xmlns:inkscape="http://www.inkscape.org/namespaces/inkscape"
   width="800"
   height="400"
   viewBox="0 0 800 400"
   id="svg2"
   version="1.1"
   inkscape:version="0.91 r13725"
   sodipodi:docname="logo.svg">
  <defs
     id="defs4" />
  <sodipodi:namedview
     id="base"
     pagecolor="#ffffff"
     bordercolor="#666666"
     borderopacity="1.0"
     inkscape:pageopacity="0.0"
     inkscape:pageshadow="2"
     inkscape:zoom="0.75"
     inkscape:cx="514.87658"
     inkscape:cy="224.31585"
     inkscape:document-units="px"
     inkscape:current-layer="layer1"
     showgrid="false"
     units="px"
     inkscape:window-width="1879"
     inkscape:window-height="1056"
     inkscape:window-x="41"
     inkscape:window-y="24"
     inkscape:window-maximized="1" />
  <metadata
     id="metadata7">
    <rdf:RDF>
      <cc:Work
         rdf:about="">
        <dc:format>image/svg+xml</dc:format>
        <dc:type
           rdf:resource="http://purl.org/dc/dcmitype/StillImage" />
        <dc:title></dc:title>
      </cc:Work>
    </rdf:RDF>
  </metadata>
  <g
     inkscape:label="Layer 1"
     inkscape:groupmode="layer"
     id="layer1"
     transform="translate(0,-652.3622)">
    <a
       id="a4986"
       style="fill:#ffdd55;fill-opacity:1">
      <g
         style="font-style:normal;font-variant:normal;font-weight:normal;font-stretch:normal;font-size:187.85494995px;line-height:125%;font-family:'Titan One';-inkscape-font-specification:'Titan One';letter-spacing:0px;word-spacing:0px;fill:#ffdd55;fill-opacity:1;stroke:#000000;stroke-width:4;stroke-linecap:butt;stroke-linejoin:miter;stroke-miterlimit:4;stroke-dasharray:none;stroke-dashoffset:0;stroke-opacity:1"
         id="text3336">
        <path
           d="m 279.07481,876.11111 q -3.56925,6.38706 -10.70774,8.82918 -6.95063,2.62997 -15.96767,2.62997 -8.82918,0 -12.96199,-0.37571 -4.13281,-0.18786 -8.82918,-1.50284 -4.50852,-1.12713 -7.13849,-3.19354 -6.01136,-5.07208 -6.01136,-15.77981 0,-15.40411 7.88991,-15.40411 2.44212,0 3.7571,-0.75142 3.56924,-1.69069 3.56924,-11.647 l 0,-97.87243 q 0,-4.13281 10.70774,-8.07777 10.89558,-4.13281 23.10616,-4.13281 18.59764,0 18.59764,8.82919 l 0,103.88378 q 0,12.962 -1.12713,20.66405 -1.12713,7.70205 -4.88423,13.90127 z"
           style="stroke-width:4;fill:#ffdd55;fill-opacity:1"
           id="path4991" />
        <path
           d="m 348.61049,819.75462 q 0,12.21057 11.64701,12.21057 6.76278,0 17.65836,-4.50852 10.89559,-4.69637 11.45915,-4.69637 3.56925,0 9.39275,10.70773 5.82351,10.70773 5.82351,15.77982 0,7.32634 -15.0284,11.08344 -15.0284,3.7571 -29.49323,3.7571 -14.27697,0 -24.04543,-2.25426 -9.5806,-2.25426 -15.77982,-5.63565 -6.01136,-3.56924 -10.70773,-8.64133 -4.50852,-5.07208 -6.76278,-9.5806 -2.25426,-4.69637 -3.56924,-10.33202 -1.87855,-8.26562 -1.87855,-17.0948 0,-34.1896 17.84622,-47.15159 8.82918,-6.57493 19.72477,-9.2049 10.89559,-2.62997 25.73613,-2.62997 47.5273,0 47.5273,33.06247 0,35.12888 -53.35081,35.12888 l -6.19921,0 z m -0.37571,-27.42682 0,12.39842 q 5.44779,0 8.82918,-4.32066 3.56925,-4.32066 3.56925,-10.51988 0,-11.27129 -5.82351,-11.27129 -6.57492,0 -6.57492,13.71341 z"
           style="stroke-width:4;fill:#ffdd55;fill-opacity:1"
           id="path4993" />
        <path
           d="m 470.64576,863.90053 q -31.18392,0 -45.64875,-6.01135 -7.32635,-3.19354 -7.32635,-6.19922 0,-7.70205 4.50852,-18.03407 4.50852,-10.33203 7.88991,-10.33203 1.87855,0 12.58628,4.13281 10.89559,4.13281 18.22193,4.13281 7.5142,0 9.76846,-0.93927 2.44211,-0.93928 2.44211,-3.56925 0,-2.81782 -3.7571,-4.32066 -3.7571,-1.6907 -9.39274,-2.25426 -5.63565,-0.56356 -12.21058,-2.25426 -6.38706,-1.69069 -12.02271,-4.32066 -5.63565,-2.62997 -9.39275,-8.64133 -3.7571,-6.19921 -3.7571,-13.14985 0,-7.13849 0.37571,-10.51987 0.37571,-3.56925 3.00568,-9.76846 2.81782,-6.38707 7.70205,-10.33202 5.07209,-3.94496 15.40411,-7.13849 10.51988,-3.19354 23.48187,-3.19354 12.96199,0 21.60332,0.93928 8.82918,0.75142 13.71341,2.0664 5.07208,1.31499 8.26562,3.00568 5.44779,2.81783 5.44779,6.19922 0,7.32634 -5.25994,16.90694 -5.25994,9.5806 -8.45347,9.5806 -3.00568,0 -13.3377,-3.19353 -10.33203,-3.38139 -15.21625,-3.38139 -7.88991,0 -7.88991,4.50852 0,2.81782 5.25994,4.32066 5.44779,1.31499 12.96199,2.81783 7.5142,1.50284 15.02839,4.32066 7.70206,2.62997 12.962,9.76846 5.44779,7.13849 5.44779,18.03407 0,36.81957 -52.41153,36.81957 z"
           style="stroke-width:4;fill:#ffdd55;fill-opacity:1"
           id="path4995" />
        <path
           d="m 601.83016,859.20416 -1.87855,-12.21057 -1.50284,0 -0.37571,1.69069 q -0.75142,4.13281 -6.38707,9.2049 -2.62997,2.44211 -7.88991,4.32066 -5.07208,1.69069 -11.647,1.69069 -21.03976,0 -29.49323,-10.89558 -8.26562,-10.89559 -8.26562,-37.9467 l 0,-51.09655 q 0,-3.7571 11.08344,-7.13849 11.08344,-3.56924 23.29402,-3.56924 16.34338,0 16.34338,8.45347 l 0,47.71516 q 0,14.27697 1.12713,20.8519 1.12713,6.38707 5.63565,6.38707 6.01135,0 6.01135,-5.07209 l 0,-67.62778 q 0,-3.94495 11.64701,-7.32634 11.64701,-3.38139 25.36042,-3.38139 13.71341,0 13.71341,7.32634 l 0,96.7453 q 0,2.62997 -11.83486,3.7571 -11.83486,1.12713 -23.29402,1.12713 -11.45915,0 -11.647,-3.00568 z m 12.21057,-143.52118 q 4.32066,0 8.64133,7.13849 4.50852,7.13848 4.50852,17.65836 0,2.81783 -16.34338,5.07208 -16.15553,2.06641 -26.86326,2.06641 -3.56925,0 -6.57493,-4.50852 -2.81782,-4.50852 -2.81782,-10.33202 0,-6.01136 13.90127,-11.45915 14.08912,-5.63565 25.54827,-5.63565 z"
           style="stroke-width:4;fill:#ffdd55;fill-opacity:1"
           id="path4997" />
        <path
           d="m 712.80251,863.90053 q -31.18392,0 -45.64875,-6.01135 -7.32634,-3.19354 -7.32634,-6.19922 0,-7.70205 4.50852,-18.03407 4.50851,-10.33203 7.8899,-10.33203 1.87855,0 12.58628,4.13281 10.89559,4.13281 18.22193,4.13281 7.5142,0 9.76846,-0.93927 2.44212,-0.93928 2.44212,-3.56925 0,-2.81782 -3.7571,-4.32066 -3.7571,-1.6907 -9.39275,-2.25426 -5.63565,-0.56356 -12.21057,-2.25426 -6.38707,-1.69069 -12.02272,-4.32066 -5.63565,-2.62997 -9.39275,-8.64133 -3.7571,-6.19921 -3.7571,-13.14985 0,-7.13849 0.37571,-10.51987 0.37571,-3.56925 3.00568,-9.76846 2.81783,-6.38707 7.70206,-10.33202 5.07208,-3.94496 15.4041,-7.13849 10.51988,-3.19354 23.48187,-3.19354 12.96199,0 21.60332,0.93928 8.82918,0.75142 13.71341,2.0664 5.07209,1.31499 8.26562,3.00568 5.44779,2.81783 5.44779,6.19922 0,7.32634 -5.25994,16.90694 -5.25993,9.5806 -8.45347,9.5806 -3.00568,0 -13.3377,-3.19353 -10.33202,-3.38139 -15.21625,-3.38139 -7.88991,0 -7.88991,4.50852 0,2.81782 5.25994,4.32066 5.44779,1.31499 12.96199,2.81783 7.5142,1.50284 15.0284,4.32066 7.70205,2.62997 12.96199,9.76846 5.44779,7.13849 5.44779,18.03407 0,36.81957 -52.41153,36.81957 z"
           style="stroke-width:4;fill:#ffdd55;fill-opacity:1"
           id="path4999" />
      </g>
    </a>
    <g
       style="font-style:normal;font-variant:normal;font-weight:normal;font-stretch:normal;font-size:187.85494995px;line-height:125%;font-family:'Titan One';-inkscape-font-specification:'Titan One';letter-spacing:0px;word-spacing:0px;fill:#ffdd55;fill-opacity:1;stroke:#000000;stroke-width:4;stroke-linecap:butt;stroke-linejoin:round;stroke-miterlimit:4;stroke-dasharray:none;stroke-dashoffset:8.81670856;stroke-opacity:1"
       id="text3340">
      <path
         d="m 90.070314,1017.4061 q 0,2.8178 -12.210572,4.1328 -12.022717,1.315 -22.918304,1.315 -10.895587,0 -14.089121,-1.315 -3.193534,-1.315 -3.193534,-4.1328 l 0,-119.10005 q 0,-4.88423 4.884228,-6.95063 4.884229,-2.06641 18.409785,-2.06641 l 69.694184,0 q 3.94496,0 3.94496,14.27698 0,14.08912 -1.87855,21.60332 -1.6907,7.32634 -4.50852,7.32634 l -38.134556,-1.87855 0,12.77414 q 24.984706,-1.12713 33.438176,-1.12713 2.81783,0 3.7571,3.00568 1.12713,3.00568 1.12713,11.647 0,8.45348 -1.87855,16.34339 -1.87855,7.70205 -5.25993,7.70205 l -31.183926,-1.12713 0,37.571 z"
         style="stroke-width:4;fill:#ffdd55;fill-opacity:1"
         id="path5002" />
      <path
         d="m 182.48321,1024.5446 q -17.0948,0 -26.86326,-8.0778 -3.94495,-3.3814 -6.95063,-9.9563 -2.81783,-6.57492 -2.81783,-15.4041 0,-8.82919 4.13281,-15.40411 4.32066,-6.57492 10.33202,-10.14417 6.01136,-3.56924 14.08912,-5.8235 12.21058,-3.19354 26.86326,-3.19354 l 6.19922,0 q 0,-7.70205 -5.25994,-10.89558 -2.25426,-1.31499 -6.95064,-1.31499 -4.50852,0 -11.08344,2.44212 -6.38707,2.44211 -10.70773,5.07208 -4.32066,2.44212 -5.8235,2.44212 -3.38139,0 -9.2049,-8.82919 -5.8235,-9.01704 -5.8235,-16.34338 0,-2.44211 6.95063,-6.38707 6.95064,-3.94495 19.53692,-7.13848 12.77413,-3.38139 24.79685,-3.38139 12.02272,0 20.66405,2.0664 8.82918,1.87855 14.27697,4.69637 5.63565,2.81783 9.39275,7.5142 3.94495,4.69638 5.8235,8.45348 2.06641,3.75709 3.00568,9.76845 1.31499,6.95064 1.31499,17.0948 l 0,56.54438 q 0,2.0664 -10.14417,3.3814 -9.95631,1.1271 -19.91263,1.1271 -9.76845,0 -12.77413,-0.5636 -2.81783,-0.5635 -3.38139,-1.315 -0.56357,-0.7514 -0.93928,-2.6299 l -1.50284,-10.7078 -1.50283,0 q -4.69638,16.907 -25.73613,16.907 z m 25.17256,-31.18395 0,-21.97902 q -4.88423,0 -7.88991,4.1328 -3.00568,4.13281 -3.00568,9.39275 0,12.39843 5.63565,12.39843 2.44212,0 3.7571,-1.12713 1.50284,-1.31499 1.50284,-2.81783 z"
         style="stroke-width:4;fill:#ffdd55;fill-opacity:1"
         id="path5004" />
      <path
         d="m 322.25904,963.49172 0,54.85368 q 0,2.0664 -10.70773,3.3814 -10.51988,1.1271 -21.97903,1.1271 -11.2713,0 -14.65269,-0.9393 -3.38139,-1.1271 -3.38139,-3.5692 l 0,-92.61253 q 0,-3.56924 10.33203,-7.70205 10.51987,-4.13281 22.73044,-4.13281 12.39843,0 13.90127,6.76278 l 1.87855,8.64133 1.31498,0 q 2.62997,-7.13849 12.58629,-12.02272 9.95631,-5.07208 19.91262,-5.07208 9.95631,0 13.90127,3.19353 4.13281,3.19353 4.13281,8.26562 0,4.88423 -0.75142,12.58628 -0.75142,7.70205 -3.7571,16.71909 -2.81783,9.01704 -7.5142,9.01704 -1.87855,0 -11.83486,-2.81783 -9.95631,-2.81782 -16.53124,-2.81782 -6.38707,0 -8.07776,1.87855 -1.50284,1.87855 -1.50284,5.25994 z"
         style="stroke-width:4;fill:#ffdd55;fill-opacity:1"
         id="path5006" />
      <path
         d="m 432.3303,963.49172 0,54.85368 q 0,2.0664 -10.70773,3.3814 -10.51988,1.1271 -21.97903,1.1271 -11.2713,0 -14.65269,-0.9393 -3.38139,-1.1271 -3.38139,-3.5692 l 0,-92.61253 q 0,-3.56924 10.33202,-7.70205 10.51988,-4.13281 22.73045,-4.13281 12.39843,0 13.90127,6.76278 l 1.87855,8.64133 1.31498,0 q 2.62997,-7.13849 12.58628,-12.02272 9.95632,-5.07208 19.91263,-5.07208 9.95631,0 13.90127,3.19353 4.1328,3.19353 4.1328,8.26562 0,4.88423 -0.75142,12.58628 -0.75141,7.70205 -3.75709,16.71909 -2.81783,9.01704 -7.5142,9.01704 -1.87855,0 -11.83486,-2.81783 -9.95632,-2.81782 -16.53124,-2.81782 -6.38707,0 -8.07776,1.87855 -1.50284,1.87855 -1.50284,5.25994 z"
         style="stroke-width:4;fill:#ffdd55;fill-opacity:1"
         id="path5008" />
      <path
         d="m 526.43389,1024.5446 q -17.0948,0 -26.67541,-8.0778 -4.13281,-3.3814 -7.13849,-9.9563 -2.81782,-6.57492 -2.81782,-15.4041 0,-8.82919 4.13281,-15.40411 4.32066,-6.57492 10.33202,-10.14417 6.01136,-3.56924 14.08912,-5.8235 12.21057,-3.19354 26.86326,-3.19354 l 6.19921,0 q 0,-7.70205 -5.44779,-10.89558 -2.0664,-1.31499 -6.76278,-1.31499 -4.50852,0 -11.08344,2.44212 -6.38707,2.44211 -10.70773,5.07208 -4.32067,2.44212 -5.82351,2.44212 -3.38138,0 -9.20489,-8.82919 -5.8235,-9.01704 -5.8235,-16.34338 0,-2.44211 6.95063,-6.38707 6.95064,-3.94495 19.53692,-7.13848 12.77413,-3.38139 24.79685,-3.38139 12.02272,0 20.66404,2.0664 8.82919,1.87855 14.27698,4.69637 5.63565,2.81783 9.39275,7.5142 3.94495,4.69638 5.8235,8.45348 2.06641,3.75709 3.19354,9.76845 1.12713,6.95064 1.12713,17.0948 l 0,56.54438 q 0,2.0664 -10.14417,3.3814 -9.95631,1.1271 -19.91263,1.1271 -9.76845,0 -12.77413,-0.5636 -2.81783,-0.5635 -3.38139,-1.315 -0.56357,-0.7514 -0.93928,-2.6299 l -1.50284,-10.7078 -1.50284,0 q -4.69637,16.907 -25.73612,16.907 z m 25.17256,-31.18395 0,-21.97902 q -4.88423,0 -7.88991,4.1328 -3.00568,4.13281 -3.00568,9.39275 0,12.39843 5.63565,12.39843 2.44211,0 3.7571,-1.12713 1.50284,-1.31499 1.50284,-2.81783 z m 15.96767,-117.03363 q 4.32066,0 8.64133,7.13849 4.50852,7.13849 4.50852,17.65836 0,2.81783 -16.34338,5.07209 -16.15553,2.0664 -26.86326,2.0664 -3.56925,0 -6.57493,-4.50852 -2.81782,-4.50852 -2.81782,-10.33202 0,-6.01136 13.90127,-11.45915 14.08912,-5.63565 25.54827,-5.63565 z"
         style="stroke-width:4;fill:#ffdd55;fill-opacity:1"
         id="path5010" />
      <path
         d="m 666.98753,925.73287 0,92.61253 q 0,2.0664 -10.89559,3.3814 -10.70773,1.1271 -22.16688,1.1271 -11.2713,0 -14.65269,-0.9393 -3.19353,-1.1271 -3.19353,-3.5692 l 0,-89.23114 q 0,-4.13281 10.51988,-8.07776 10.70773,-4.13281 23.29401,-4.13281 17.0948,0 17.0948,8.82918 z m -25.54827,-49.40585 q 12.39842,0 19.34906,3.7571 7.13848,3.56924 7.13848,13.14985 0,16.90694 -26.29969,16.90694 -26.29969,0 -26.29969,-16.90694 0,-16.90695 26.11184,-16.90695 z"
         style="stroke-width:4;fill:#ffdd55;fill-opacity:1"
         id="path5012" />
      <path
         d="m 732.09981,1024.5446 q -31.18392,0 -45.64876,-6.0114 -7.32634,-3.1935 -7.32634,-6.1992 0,-7.702 4.50852,-18.03407 4.50852,-10.33202 7.88991,-10.33202 1.87855,0 12.58628,4.13281 10.89559,4.1328 18.22193,4.1328 7.5142,0 9.76846,-0.93927 2.44211,-0.93927 2.44211,-3.56924 0,-2.81783 -3.7571,-4.32067 -3.7571,-1.69069 -9.39275,-2.25426 -5.63564,-0.56356 -12.21057,-2.25426 -6.38707,-1.69069 -12.02271,-4.32066 -5.63565,-2.62997 -9.39275,-8.64133 -3.7571,-6.19921 -3.7571,-13.14984 0,-7.13849 0.37571,-10.51988 0.37571,-3.56925 3.00568,-9.76846 2.81782,-6.38707 7.70205,-10.33202 5.07209,-3.94496 15.40411,-7.13849 10.51987,-3.19353 23.48187,-3.19353 12.96199,0 21.60332,0.93927 8.82918,0.75142 13.71341,2.06641 5.07208,1.31498 8.26561,3.00567 5.4478,2.81783 5.4478,6.19922 0,7.32634 -5.25994,16.90694 -5.25994,9.58061 -8.45347,9.58061 -3.00568,0 -13.3377,-3.19354 -10.33203,-3.38139 -15.21626,-3.38139 -7.8899,0 -7.8899,4.50852 0,2.81783 5.25994,4.32067 5.44779,1.31498 12.96199,2.81782 7.51419,1.50284 15.02839,4.32066 7.70206,2.62997 12.96199,9.76846 5.4478,7.13849 5.4478,18.03408 0,36.81959 -52.41153,36.81959 z"
         style="stroke-width:4;fill:#ffdd55;fill-opacity:1"
         id="path5014" />
    </g>
    <g
       id="g3407"
       transform="matrix(0.34882989,-0.1474537,0.1474537,0.34882989,-10.679769,723.50826)">
      <circle
         id="circle3345"
         r="246.855"
         cy="256.004"
         cx="256.005"
         style="fill:#ffdd55" />
      <path
         id="path3347"
         d="M 126.308,385.694 C 37.506,296.892 30.509,157.268 105.309,60.453 97.023,66.854 89.051,73.852 81.451,81.452 c -96.401,96.401 -96.401,252.698 0,349.099 96.401,96.401 252.698,96.401 349.099,0 7.599,-7.599 14.597,-15.573 20.999,-23.858 -96.814,74.799 -236.44,67.802 -325.241,-20.999 z"
         style="fill:#d4aa00"
         inkscape:connector-curvature="0" />
      <g
         id="g3349">
        <path
           id="path3351"
           d="m 473.573,265.15 c -5.053,0 -9.15,-4.097 -9.15,-9.15 0,-49.977 -18.116,-98.28 -51.012,-136.006 -32.582,-37.367 -77.333,-61.873 -126.01,-69.005 -4.999,-0.733 -8.459,-5.38 -7.726,-10.379 0.733,-4.999 5.379,-8.457 10.379,-7.726 52.993,7.765 101.7,34.43 137.149,75.085 35.803,41.061 55.519,93.632 55.519,148.032 0,5.053 -4.096,9.149 -9.149,9.149 z"
           style="fill:#ffffff"
           inkscape:connector-curvature="0" />
        <path
           id="path3353"
           d="m 131.567,264.613 248.868,0 c 0,13.968 -2.306,27.4 -6.551,39.941 l -235.766,0 c -4.245,-12.541 -6.551,-25.972 -6.551,-39.941 z"
           style="fill:#ffffff"
           inkscape:connector-curvature="0" />
      </g>
      <path
         id="path3355"
         d="m 138.118,304.554 235.765,0 c -8.369,24.716 -24.289,45.931 -45.016,60.924 -8.71,-14.676 -24.716,-24.509 -43.027,-24.509 -11.187,0 -21.508,3.672 -29.84,9.882 -8.332,-6.21 -18.665,-9.882 -29.852,-9.882 -18.299,0 -34.317,9.833 -43.015,24.509 -20.726,-14.993 -36.646,-36.208 -45.015,-60.924 z"
         style="fill:#a81004"
         inkscape:connector-curvature="0" />
      <path
         id="path3357"
         d="m 285.841,340.969 c 18.311,0 34.317,9.833 43.027,24.509 -20.483,14.834 -45.662,23.569 -72.867,23.569 -27.205,0 -52.384,-8.735 -72.867,-23.569 8.698,-14.676 24.716,-24.509 43.015,-24.509 11.187,0 21.52,3.672 29.852,9.882 8.332,-6.21 18.653,-9.882 29.84,-9.882 z"
         style="fill:#f95428"
         inkscape:connector-curvature="0" />
      <circle
         id="circle3359"
         r="9.1499996"
         cy="39.647999"
         cx="256.005"
         style="fill:#ffffff" />
      <g
         id="g3361">
        <path
           id="path3363"
           d="M 256.001,0 C 114.842,0 0.00100002,114.841 0.00100002,256.001 0.00100002,397.161 114.842,512.002 256.002,512.002 397.16,512.002 512.001,397.161 512.001,256.001 512.001,114.841 397.159,0 256.001,0 Z m 0,493.701 c -131.069,0 -237.702,-106.631 -237.702,-237.7 0,-131.069 106.633,-237.702 237.702,-237.702 131.068,0 237.7,106.632 237.7,237.702 0,131.07 -106.632,237.7 -237.7,237.7 z"
           style="fill:#333333"
           inkscape:connector-curvature="0" />
        <path
           id="path3365"
           d="m 380.435,255.464 -248.868,0 c -5.053,0 -9.15,4.097 -9.15,9.15 0,14.662 2.367,29.087 7.034,42.876 8.934,26.382 25.643,48.999 48.314,65.4 22.86,16.557 49.914,25.309 78.235,25.309 28.32,0 55.373,-8.752 78.23,-25.305 22.676,-16.405 39.386,-39.02 48.319,-65.402 l 0,0 c 4.667,-13.789 7.034,-28.214 7.034,-42.875 0.002,-5.057 -4.095,-9.153 -9.148,-9.153 z m -9.508,18.299 c -0.576,7.338 -1.854,14.575 -3.809,21.642 l -222.235,0 c -1.954,-7.067 -3.233,-14.303 -3.809,-21.642 l 229.853,0 z m -174.704,89.439 c 7.649,-8.21 18.499,-13.083 29.926,-13.083 8.87,0 17.302,2.79 24.385,8.067 3.244,2.417 7.691,2.417 10.934,0 7.082,-5.279 15.509,-8.067 24.372,-8.067 11.421,0 22.272,4.871 29.932,13.085 -17.972,10.947 -38.452,16.692 -59.772,16.692 -21.32,0.002 -41.802,-5.745 -59.777,-16.694 z M 330.677,352.44 c -11.137,-12.9 -27.533,-20.621 -44.838,-20.621 -10.623,0 -20.819,2.77 -29.84,8.066 -9.021,-5.295 -19.221,-8.066 -29.852,-8.066 -17.311,0 -33.707,7.722 -44.829,20.617 -12.623,-10.71 -22.68,-23.855 -29.665,-38.733 l 208.694,0 c -6.985,14.88 -17.043,28.025 -29.67,38.737 z"
           style="fill:#333333"
           inkscape:connector-curvature="0" />
        <path
           id="path3367"
           d="m 206.973,209.881 c 0.827,-3.622 -0.617,-7.386 -3.657,-9.523 l -54.287,-38.174 c -4.133,-2.906 -9.84,-1.913 -12.747,2.221 -2.906,4.133 -1.912,9.84 2.222,12.747 l 35.988,25.306 -75.523,12.47 c -4.986,0.823 -8.36,5.532 -7.537,10.518 0.739,4.481 4.619,7.66 9.017,7.66 0.495,0 0.997,-0.04 1.502,-0.123 l 97.595,-16.113 c 3.664,-0.605 6.6,-3.367 7.427,-6.989 z"
           style="fill:#333333"
           inkscape:connector-curvature="0" />
        <path
           id="path3369"
           d="M 413.034,214.929 337.51,202.46 373.498,177.154 c 4.133,-2.907 5.129,-8.614 2.222,-12.747 -2.907,-4.134 -8.615,-5.129 -12.747,-2.222 l -54.287,38.174 c -3.039,2.137 -4.484,5.9 -3.657,9.523 0.827,3.623 3.764,6.384 7.429,6.989 l 97.595,16.113 c 0.505,0.083 1.006,0.123 1.502,0.123 4.397,0 8.276,-3.179 9.017,-7.66 0.823,-4.986 -2.552,-9.695 -7.538,-10.518 z"
           style="fill:#333333"
           inkscape:connector-curvature="0" />
      </g>
      <g
         id="g3371" />
      <g
         id="g3373" />
      <g
         id="g3375" />
      <g
         id="g3377" />
      <g
         id="g3379" />
      <g
         id="g3381" />
      <g
         id="g3383" />
      <g
         id="g3385" />
      <g
         id="g3387" />
      <g
         id="g3389" />
      <g
         id="g3391" />
      <g
         id="g3393" />
      <g
         id="g3395" />
      <g
         id="g3397" />
      <g
         id="g3399" />
    </g>
  </g>
</svg>
